<svg width="78" height="87" viewBox="0 0 78 87" fill="none" xmlns="http://www.w3.org/2000/svg">
<path d="M50.7346 81.2419H13.3467V121.608H50.7346V81.2419Z" fill="#CCCCCC"/>
<path d="M53.924 37.4936L17.9387 37.1719C18.0292 32.1112 19.2487 27.1416 21.9143 22.6946C23.665 19.774 23.6271 16.5955 23.2052 13.9177C22.5542 9.78521 24.0682 5.55711 27.4325 2.92651C30.0035 0.912683 33.2484 -0.123958 36.5561 0.0118337L37.2548 0.0399416C39.5308 0.131272 41.7467 0.773233 43.6988 1.90688C45.6509 3.04053 47.2768 4.62954 48.4272 6.52801C49.5964 8.5547 50.0679 10.8879 49.7736 13.1903C49.5455 15.3567 50.0913 17.5452 51.3679 19.7545C53.5704 24.6059 54.0473 30.8138 53.924 37.4936Z" fill="#2F2E41"/>
<path d="M78 171.221L70.9375 173L36.5462 100.657L38.6956 171.221H31.6331C24.0864 138.023 10.4612 99.7084 16.5869 87.612L53.1277 85.5366L78 171.221Z" fill="#E69368"/>
<path d="M36.2391 25.3499C41.4963 25.3499 45.7581 21.2349 45.7581 16.1588C45.7581 11.0827 41.4963 6.96774 36.2391 6.96774C30.9819 6.96774 26.7201 11.0827 26.7201 16.1588C26.7201 21.2349 30.9819 25.3499 36.2391 25.3499Z" fill="#FFB9B9"/>
<path d="M44.5299 33.0585L28.8695 32.169C30.4043 28.7678 31.0173 25.4927 30.4049 22.385H42.0734C42.0469 24.7711 43.2767 28.8985 44.5299 33.0585Z" fill="#FFB9B9"/>
<path d="M54.3559 88.2048L19.9648 90.5769L23.4959 31.7244L29.4838 30.0936L36.2391 31.576L42.9944 28.3146L47.2933 29.7973L54.3559 88.2048Z" fill="#E69368"/>
<path d="M25.7989 130.602L2.30837 125.414C9.29333 103.049 21.8771 51.8848 17.8152 33.6515L30.0978 28.3147L25.7989 130.602Z" fill="#E6E6E6"/>
<path d="M14.4374 65.9685L5.53255 60.6317L13.1269 39.1558C13.9739 36.9397 15.5962 35.0791 17.7134 33.8956L20.2717 32.4655L18.7364 54.109L14.4374 65.9685Z" fill="#E6E6E6"/>
<path d="M74.7758 125.71C67.3617 129.852 48.8289 132.161 40.6915 129.268C40.0928 109.061 38.9185 51.9034 42.6875 27.7218L56.1984 33.0585L54.9701 49.0688C48.5108 62.7647 67.2672 110.468 74.7758 125.71Z" fill="#E6E6E6"/>
<path d="M73.7011 63.3003L65.4102 60.6318L54.3559 48.4757L56.1985 33.0584L74.6222 57.9634L73.7011 63.3003Z" fill="#E6E6E6"/>
<path d="M47.7179 74.8403C47.8536 75.4151 48.2198 75.9145 48.7362 76.229C49.2526 76.5435 49.8771 76.6474 50.4728 76.518L57.5106 74.9791L56.4934 70.6417L49.4555 72.1803C48.8598 72.3107 48.3421 72.6641 48.0163 73.1629C47.6904 73.6617 47.5831 74.2651 47.7179 74.8403Z" fill="#FFB9B9"/>
<path d="M44.5299 13.7869C39.2426 11.6877 34.0207 11.5358 28.8695 13.4904L26.7201 6.07825H46.3722L44.5299 13.7869Z" fill="#2F2E41"/>
<path d="M54.0489 69.8228L58.0407 76.9385C64.755 75.1304 70.5739 69.4301 76.1576 62.7072L74.6223 57.9634L65.1032 60.3353L54.0489 69.8228Z" fill="#E6E6E6"/>
<path d="M51.1318 55.1467H49.9035C49.9035 38.3733 46.3267 26.6841 42.841 26.6841L42.5339 25.4981C45.6599 25.4981 47.6529 30.3631 48.7742 34.4444C50.2945 39.9773 51.1318 47.3295 51.1318 55.1467Z" fill="#3F3D56"/>
<path d="M22.8817 50.996H21.6535C21.6535 35.6341 25.255 26.0911 30.5584 26.0911L30.2513 27.2771C26.583 27.2771 22.8817 34.6112 22.8817 50.996Z" fill="#3F3D56"/>
<path d="M50.5177 58.4081C52.2135 58.4081 53.5883 57.0807 53.5883 55.4432C53.5883 53.8058 52.2135 52.4784 50.5177 52.4784C48.8218 52.4784 47.447 53.8058 47.447 55.4432C47.447 57.0807 48.8218 58.4081 50.5177 58.4081Z" fill="#3F3D56"/>
<path d="M17.9687 58.1116H16.7404C16.7404 53.8611 19.2199 50.403 22.2676 50.403V51.5889C19.8972 51.5889 17.9687 54.515 17.9687 58.1116Z" fill="#3F3D56"/>
<path d="M27.7948 58.1116H26.5666C26.5666 54.515 24.6381 51.5889 22.2676 51.5889V50.403C25.3154 50.403 27.7948 53.8611 27.7948 58.1116Z" fill="#3F3D56"/>
<path d="M27.1807 59.594C27.859 59.594 28.4089 59.0631 28.4089 58.4081C28.4089 57.7531 27.859 57.2221 27.1807 57.2221C26.5023 57.2221 25.9524 57.7531 25.9524 58.4081C25.9524 59.0631 26.5023 59.594 27.1807 59.594Z" fill="#3F3D56"/>
<path d="M17.3546 59.594C18.0329 59.594 18.5828 59.0631 18.5828 58.4081C18.5828 57.7531 18.0329 57.2221 17.3546 57.2221C16.6762 57.2221 16.1263 57.7531 16.1263 58.4081C16.1263 59.0631 16.6762 59.594 17.3546 59.594Z" fill="#3F3D56"/>
<path d="M2.00126 47.5026L9.66477 48.8238L27.1807 72.8716L17.8752 70.7574L2.00126 47.5026Z" fill="#E69368"/>
<path d="M0.641996 47.2082C0.525218 47.2099 0.411055 47.2418 0.311451 47.3007C0.211847 47.3596 0.130467 47.4433 0.0758054 47.5429C0.0211438 47.6426 -0.00479156 47.7546 0.000728345 47.8672C0.00624825 47.9799 0.0430202 48.089 0.107183 48.1832L16.4802 72.1692C16.5715 72.3033 16.7127 72.3985 16.8745 72.4352L24.4923 74.1657C24.6208 74.1949 24.7554 74.1857 24.8783 74.1393C25.0012 74.093 25.1066 74.0116 25.1805 73.9061C25.2544 73.8005 25.2933 73.6758 25.2921 73.5484C25.2909 73.421 25.2496 73.2969 25.1736 73.1927L7.19712 48.513C7.14837 48.4458 7.08637 48.3885 7.01467 48.3444C6.94297 48.3003 6.86297 48.2703 6.77925 48.256L0.764797 47.2189C0.724267 47.2119 0.683173 47.2083 0.641996 47.2082Z" fill="#3F3D56"/>
<path d="M10.8555 64.3579L11.3106 68.7835L18.4912 68.0953C19.099 68.037 19.658 67.7481 20.0451 67.2919C20.4323 66.8357 20.6159 66.2498 20.5555 65.6629C20.4952 65.076 20.1959 64.5363 19.7235 64.1625C19.251 63.7887 18.6441 63.6115 18.0363 63.6697L10.8555 64.3579Z" fill="#FFB9B9"/>
<path d="M4.61151 63.8453C4.62194 65.3543 5.24963 66.7982 6.35782 67.8623C7.466 68.9264 8.96486 69.5245 10.5278 69.5263H11.7085L12.5681 62.6097L5.45085 60.1357L4.61151 63.8453Z" fill="#E6E6E6"/>
</svg>
